<?xml version="1.0" encoding="utf-8"?>
<!-- Generator: Adobe Illustrator 25.0.1, SVG Export Plug-In . SVG Version: 6.00 Build 0)  -->
<svg version="1.1" id="Camada_1" xmlns="http://www.w3.org/2000/svg" xmlns:xlink="http://www.w3.org/1999/xlink" x="0px" y="0px"
	 viewBox="0 0 164 24" style="enable-background:new 0 0 164 24;" xml:space="preserve">
<path d="M0.3,14.7c0,4.6,2.8,8.6,9.1,8.6c5.6,0,8.3-3.7,8.6-6h-5.1c-0.3,1.2-1.7,1.9-3.5,1.9c-2.9,0-4.3-1.3-4.3-3.2h12.3v-1.6
	c0-4.9-3.5-7.9-8.5-7.9S0.3,9.6,0.3,14.7z M5.1,13.1c0-1.2,0.9-2.4,3.7-2.4s3.7,1.2,3.7,2.4H5.1z M20.1,23h5.1V11.1l8.2,0.2V6.8
	L22.9,6.6c-1.8,0-2.8,0.9-2.8,2.7V23z M35.4,23h5.1V11.1l8.2,0.2V6.8L38.2,6.6c-1.8,0-2.8,0.9-2.8,2.7V23z M50.1,14.9
	c0,5.7,4,8.4,9.1,8.4c5.1,0,9.1-2.8,9.1-8.4c0-5.6-4-8.4-9.1-8.4C54.1,6.5,50.1,9.3,50.1,14.9z M55.2,14.9c0-2.7,1.6-3.9,4-3.9
	c2.4,0,4,1.2,4,3.9c0,2.7-1.6,3.9-4,3.9C56.7,18.8,55.2,17.6,55.2,14.9z M70.5,23h5.1V11.1l8.2,0.2V6.8L73.3,6.6
	c-1.8,0-2.8,0.9-2.8,2.7V23z M94.4,14.7c0,6.1,4.7,8.6,10.6,8.6c6,0,9.9-2.6,9.9-8.8c0-5.2-3.2-8-7.2-8c-3.2,0-5.5,1.6-6.8,5.1
	L100,11l1-2.9V4.9h12.2V0.4H95.8v9.6l5.8,3.3c1.3-1.6,2.8-2.4,4.7-2.4c2.4,0,3.6,1.2,3.6,3.6c0,2.8-1.2,4.2-4.8,4.2
	c-4,0-5.5-1.4-5.5-4.1H94.4z M128.1,0.1c-6.8,0-10.9,4.7-10.9,11.6c0,6.9,4,11.6,10.9,11.6c6.8,0,10.8-4.7,10.8-11.6
	C139,4.8,134.9,0.1,128.1,0.1z M128.1,4.6c1.2,0,2.3,0.3,3.2,0.9l-8.6,9.2c-0.2-0.9-0.4-1.8-0.4-2.9C122.4,7.1,124.5,4.6,128.1,4.6z
	 M128.1,18.8c-1.2,0-2.3-0.3-3.2-0.9l8.6-9.2c0.2,0.9,0.4,1.9,0.4,2.9C133.9,16.4,131.7,18.8,128.1,18.8z M152.4,0.1
	c-6.8,0-10.9,4.7-10.9,11.6c0,6.9,4,11.6,10.9,11.6c6.8,0,10.8-4.7,10.8-11.6C163.3,4.8,159.2,0.1,152.4,0.1z M152.4,4.6
	c1.2,0,2.3,0.3,3.2,0.9l-8.6,9.2c-0.2-0.9-0.4-1.8-0.4-2.9C146.6,7.1,148.8,4.6,152.4,4.6z M152.4,18.8c-1.2,0-2.3-0.3-3.2-0.9
	l8.6-9.2c0.2,0.9,0.4,1.9,0.4,2.9C158.1,16.4,156,18.8,152.4,18.8z"/>
</svg>
