<?xml version="1.0" encoding="utf-8"?>
<!-- Generator: Adobe Illustrator 25.0.1, SVG Export Plug-In . SVG Version: 6.00 Build 0)  -->
<svg version="1.1" id="Camada_1" xmlns="http://www.w3.org/2000/svg" xmlns:xlink="http://www.w3.org/1999/xlink" x="0px" y="0px"
	 viewBox="0 0 161 24" style="enable-background:new 0 0 161 24;" xml:space="preserve">
<path d="M0.3,14.7c0,4.6,2.8,8.6,9.1,8.6c5.6,0,8.3-3.7,8.6-6h-5.1c-0.3,1.2-1.7,1.9-3.5,1.9c-2.9,0-4.3-1.3-4.3-3.2h12.3v-1.6
	c0-4.9-3.5-7.9-8.5-7.9S0.3,9.6,0.3,14.7z M5.1,13.1c0-1.2,0.9-2.4,3.7-2.4s3.7,1.2,3.7,2.4H5.1z M20.1,23h5.1V11.1l8.2,0.2V6.8
	L22.9,6.6c-1.8,0-2.8,0.9-2.8,2.7V23z M35.4,23h5.1V11.1l8.2,0.2V6.8L38.2,6.6c-1.8,0-2.8,0.9-2.8,2.7V23z M50.1,14.9
	c0,5.7,4,8.4,9.1,8.4c5.1,0,9.1-2.8,9.1-8.4c0-5.6-4-8.4-9.1-8.4C54.1,6.5,50.1,9.3,50.1,14.9z M55.2,14.9c0-2.7,1.6-3.9,4-3.9
	c2.4,0,4,1.2,4,3.9c0,2.7-1.6,3.9-4,3.9C56.7,18.8,55.2,17.6,55.2,14.9z M70.5,23h5.1V11.1l8.2,0.2V6.8L73.3,6.6
	c-1.8,0-2.8,0.9-2.8,2.7V23z M114.1,14.7h-2.5v-5h-5.1v5h-7.3l-3.2,1v-1.3c8-1.7,12.5-6.5,12.9-14h-5.1c-0.4,5.3-3.7,8.6-9.1,9.4
	v9.3h11.8V23h5.1v-3.8h2.5V14.7z M127.3,0.1c-6.8,0-10.9,4.7-10.9,11.6c0,6.9,4,11.6,10.9,11.6c6.8,0,10.8-4.7,10.8-11.6
	C138.1,4.8,134.1,0.1,127.3,0.1z M127.3,4.6c1.2,0,2.3,0.3,3.2,0.9l-8.6,9.2c-0.2-0.9-0.4-1.8-0.4-2.9
	C121.5,7.1,123.6,4.6,127.3,4.6z M127.3,18.8c-1.2,0-2.3-0.3-3.2-0.9l8.6-9.2c0.2,0.9,0.4,1.9,0.4,2.9
	C133,16.4,130.9,18.8,127.3,18.8z M160.3,14.7h-2.5v-5h-5.1v5h-7.3l-3.2,1v-1.3c8-1.7,12.5-6.5,12.9-14H150
	c-0.4,5.3-3.7,8.6-9.1,9.4v9.3h11.8V23h5.1v-3.8h2.5V14.7z"/>
</svg>
