<?xml version="1.0" encoding="utf-8"?>
<!-- Generator: Adobe Illustrator 25.0.1, SVG Export Plug-In . SVG Version: 6.00 Build 0)  -->
<svg version="1.1" id="Camada_1" xmlns="http://www.w3.org/2000/svg" xmlns:xlink="http://www.w3.org/1999/xlink" x="0px" y="0px"
	 viewBox="0 0 80 41" style="enable-background:new 0 0 80 41;" xml:space="preserve">
<style type="text/css">
	.st0{fill:#FFFFFF;}
</style>
<path class="st0" d="M0.1,17.3h6.2c4.4,0,7.9-0.6,7.9-4.5c0-3.6-2.7-3.8-5.3-3.9v-1c1.8-0.1,4.1-0.2,4.1-3.4c0-3.3-2.3-4.2-7-4.2h-6
	V17.3z M4,6.8V3.8h2.6c1.6,0,2.7,0,2.7,1.5S8.1,6.8,6.5,6.8H4z M4,14v-3.8h2.9c2.3,0,3.6,0,3.6,1.9c0,1.9-1.3,1.9-3.6,1.9H4z
	 M15.7,11.3c0,4.2,3,6.3,6.8,6.3c3.8,0,6.8-2.1,6.8-6.3c0-4.2-3-6.3-6.8-6.3C18.8,5,15.7,7,15.7,11.3z M19.6,11.3c0-2,1.2-2.9,3-2.9
	c1.8,0,3,0.9,3,2.9c0,2-1.2,3-3,3C20.8,14.2,19.6,13.3,19.6,11.3z M30.6,11.3c0,4.1,2.8,6.3,6.6,6.3c3.3,0,6.3-1.8,6.5-5.3h-3.8
	c-0.1,1.1-1.1,1.9-2.7,1.9c-1.8,0-2.8-1.1-2.8-3c0-1.8,1-2.9,2.8-2.9c1.5,0,2.5,0.8,2.7,1.9h3.8C43.6,6.8,40.5,5,37.2,5
	C33.4,5,30.6,7.2,30.6,11.3z M44.9,14c0,1.2,0.6,3.6,4.4,3.6c3.4,0,4.6-1.7,5-3.7h1l-0.6,1.4v0.2c0,1.2,0.6,1.8,1.8,1.8h2.7V14h-1.8
	v-3.4c0-4-2.9-5.6-6.3-5.6c-3.4,0-6,1.8-6,4.9h3.6c0-1.1,0.9-1.8,2.4-1.8c1.7,0,2.4,0.6,2.4,1.6l-3.8,0.5
	C46.2,10.7,44.9,11.9,44.9,14z M48.8,13.3c0-0.7,0.6-0.9,1.7-1l3.1-0.4c0,1.5-1.4,2.4-3.5,2.4C49.4,14.2,48.8,14,48.8,13.3z
	 M0.1,40.3H4V26.8l-0.7-2.4h1l2.7,16h7.4l2.7-16h1l-0.7,2.4v13.6h3.8V23.4h-7.6l-2.5,16h-1l-2.5-16H0.1V40.3z M27.8,27
	c1.4,0,2.3-0.7,2.3-1.9c0-1.2-0.9-1.9-2.3-1.9s-2.3,0.7-2.3,1.9C25.5,26.3,26.4,27,27.8,27z M22.8,40.3h10.6V37h-3.4v-7
	c0-1.3-0.7-2.1-2.1-2l-4.6,0.2v3.4l3-0.1V37h-3.4V40.3z M36.1,24.3l0.6,2.7l9.4-2.1l-0.6-2.7L36.1,24.3z M40.9,37.2
	c-1.8,0-2.5-0.8-2.5-3v-6h-3.8v6.6c0,3.7,1.9,5.8,5,5.8c2.6,0,4.1-1.7,4.6-3.9h1l-0.7,2.2v1.5h3.8V28.2h-3.8v4.5
	C44.4,36.1,43,37.2,40.9,37.2z M63.8,40.3V22.7h-3.8V29l0.7,2.2h-1c-0.6-1.6-1.8-3.1-4.8-3.1c-3.5,0-5.3,2.9-5.3,6.3
	s1.8,6.3,5.3,6.3c3,0,4.2-1.5,4.8-3.1h1l-0.7,2.2v0.7H63.8z M59.9,34.3c0,2-1.2,3-3.2,3s-3.2-0.9-3.2-3s1.2-2.9,3.2-2.9
	S59.9,32.2,59.9,34.3z M65.5,37c0,1.2,0.6,3.6,4.4,3.6c3.4,0,4.6-1.7,5-3.7h1l-0.6,1.4v0.2c0,1.2,0.6,1.8,1.8,1.8h2.7V37H78v-3.4
	c0-4-2.9-5.6-6.3-5.6c-3.4,0-6,1.8-6,4.9h3.6c0-1.1,0.9-1.8,2.4-1.8c1.7,0,2.4,0.6,2.4,1.6l-3.8,0.5C66.7,33.7,65.5,34.9,65.5,37z
	 M69.3,36.3c0-0.7,0.6-0.9,1.7-1l3.1-0.4c0,1.5-1.4,2.4-3.5,2.4C70,37.2,69.3,37,69.3,36.3z"/>
</svg>
