<?xml version="1.0" encoding="utf-8"?>
<!-- Generator: Adobe Illustrator 25.0.1, SVG Export Plug-In . SVG Version: 6.00 Build 0)  -->
<svg version="1.1" id="Camada_1" xmlns="http://www.w3.org/2000/svg" xmlns:xlink="http://www.w3.org/1999/xlink" x="0px" y="0px"
	 viewBox="0 0 232 182" style="enable-background:new 0 0 232 182;" xml:space="preserve">
<path d="M2,3.2l0.9,3.6l12.5-2.8l-0.9-3.6L2,3.2z M0.9,31H17v-4.5H6v-4.6h9.4v-4.5H6v-4.5h11V8.4H0.9V31z M37.3,26.8
	c-2.5,0-3.3-1.1-3.3-4.1v-7.9h-5.1v8.7c0,5,2.5,7.7,6.6,7.7c3.5,0,5.5-2.3,6.1-5.2h1.3l-1,2.9v2H47V14.8h-5.1v6
	C41.9,25.4,40.1,26.8,37.3,26.8z M71.2,14.5c-3.1,0-4.6,2-5.2,4.8h-0.9c-0.5-2.8-1.8-4.8-4.8-4.8c-3.1,0-4.6,2-5.2,4.8h-1.3l1-2.9
	v-1.6h-5.1V31h5.1v-5.7c0-3.9,0.6-6.3,3.4-6.3c1.9,0,2.4,0.9,2.4,3.9V31h5.1v-5.7c0-3.9,0.6-6.3,3.4-6.3c1.9,0,2.4,0.9,2.4,3.9V31
	h5.1v-8.4C76.6,18.2,75.3,14.5,71.2,14.5z M0.3,58.9c0,5.4,3.7,8.4,8.8,8.4c4.4,0,8.4-2.4,8.7-7h-5.1c-0.2,1.4-1.5,2.5-3.6,2.5
	c-2.4,0-3.7-1.4-3.7-3.9c0-2.5,1.3-3.9,3.7-3.9c2,0,3.4,1.1,3.6,2.5h5.1c-0.2-4.6-4.3-7-8.7-7C4,50.5,0.3,53.5,0.3,58.9z M25.7,49.2
	c1.9,0,3.1-0.9,3.1-2.6c0-1.6-1.2-2.6-3.1-2.6c-1.9,0-3,0.9-3,2.6C22.7,48.3,23.8,49.2,25.7,49.2z M19.1,67h14.1v-4.5h-4.6v-9.3
	c0-1.8-1-2.8-2.8-2.7l-6.1,0.3v4.5l3.9-0.2v7.4h-4.6V67z M35.1,67h5.1V55.1l8.2,0.2v-4.5l-10.6-0.3c-1.8,0-2.8,0.9-2.8,2.7V67z
	 M49.7,58.9c0,5.4,3.7,8.4,8.8,8.4c4.4,0,8.4-2.4,8.7-7h-5.1c-0.2,1.4-1.5,2.5-3.6,2.5c-2.4,0-3.7-1.4-3.7-3.9
	c0-2.5,1.3-3.9,3.7-3.9c2,0,3.4,1.1,3.6,2.5h5.1c-0.2-4.6-4.3-7-8.7-7C53.4,50.5,49.7,53.5,49.7,58.9z M77.6,62.8
	c-2.5,0-3.3-1.1-3.3-4.1v-7.9h-5.1v8.7c0,5,2.5,7.7,6.6,7.7c3.5,0,5.5-2.3,6.1-5.2h1.3l-1,2.9v2h5.1V50.8h-5.1v6
	C82.2,61.4,80.4,62.8,77.6,62.8z M96.2,49.2c1.9,0,3.1-0.9,3.1-2.6c0-1.6-1.2-2.6-3.1-2.6s-3,0.9-3,2.6
	C93.2,48.3,94.3,49.2,96.2,49.2z M89.6,67h14.1v-4.5h-4.6v-9.3c0-1.8-1-2.8-2.8-2.7l-6.1,0.3v4.5l3.9-0.2v7.4h-4.6V67z M111.3,62.8
	v-7.5h5.3v-4.5h-5.3v-4.6l-5.1,1.6v3h-3.8v4.5h3.8v9.3c0,1.8,1,2.8,2.7,2.7l8.4-0.3v-4.5L111.3,62.8z M118.5,58.9
	c0,5.7,4,8.4,9.1,8.4c5.1,0,9.1-2.8,9.1-8.4c0-5.6-4-8.4-9.1-8.4C122.6,50.5,118.5,53.3,118.5,58.9z M123.7,58.9
	c0-2.7,1.6-3.9,4-3.9c2.4,0,4,1.2,4,3.9c0,2.7-1.6,3.9-4,3.9C125.2,62.8,123.7,61.6,123.7,58.9z M0.9,103H6V91.1l8.2,0.2v-4.5
	L3.7,86.6c-1.8,0-2.8,0.9-2.8,2.7V103z M15.6,94.7c0,4.6,2.8,8.6,9.1,8.6c5.6,0,8.3-3.7,8.6-6h-5.1c-0.3,1.2-1.7,1.9-3.5,1.9
	c-2.9,0-4.3-1.3-4.3-3.2h12.3v-1.6c0-4.9-3.5-7.9-8.5-7.9S15.6,89.6,15.6,94.7z M20.4,93.1c0-1.2,0.9-2.4,3.7-2.4s3.7,1.2,3.7,2.4
	H20.4z M34.8,94.9c0,5.4,3.7,8.4,8.8,8.4c4.4,0,8.4-2.4,8.7-7h-5.1c-0.2,1.4-1.5,2.5-3.6,2.5c-2.4,0-3.7-1.4-3.7-3.9
	c0-2.5,1.3-3.9,3.7-3.9c2,0,3.4,1.1,3.6,2.5h5.1c-0.2-4.6-4.3-7-8.7-7C38.5,86.5,34.8,89.5,34.8,94.9z M53.9,94.9
	c0,5.7,4,8.4,9.1,8.4c5.1,0,9.1-2.8,9.1-8.4c0-5.6-4-8.4-9.1-8.4C57.9,86.5,53.9,89.3,53.9,94.9z M59,94.9c0-2.7,1.6-3.9,4-3.9
	c2.4,0,4,1.2,4,3.9c0,2.7-1.6,3.9-4,3.9C60.6,98.8,59,97.6,59,94.9z M74.3,103h5.1V91.1l8.2,0.2v-4.5l-10.6-0.3
	c-1.8,0-2.8,0.9-2.8,2.7V103z M97.6,98.8v-7.5h5.3v-4.5h-5.3v-4.6l-5.1,1.6v3h-3.8v4.5h3.8v9.3c0,1.8,1,2.8,2.7,2.7l8.4-0.3v-4.5
	L97.6,98.8z M105.5,98.6c0,1.7,0.9,4.7,5.9,4.7c4.5,0,6.1-2.3,6.7-5h1.3l-0.8,1.9v0.3c0,1.5,0.9,2.4,2.4,2.4h3.6v-4.5h-2.3V94
	c0-5.3-3.9-7.5-8.4-7.5c-4.5,0-8,2.4-8,6.5h4.8c0-1.5,1.2-2.3,3.2-2.3c2.2,0,3.2,0.8,3.2,2.1l-5.1,0.7
	C107.1,94.2,105.5,95.8,105.5,98.6z M110.6,97.6c0-0.9,0.8-1.2,2.3-1.4l4.1-0.6c0,2-1.9,3.2-4.7,3.2
	C111.5,98.8,110.6,98.6,110.6,97.6z M144.3,103V79.5h-5.1v8.4l1,2.9h-1.3c-0.8-2.1-2.4-4.2-6.4-4.2c-4.7,0-7,3.8-7,8.4
	c0,4.6,2.3,8.4,7,8.4c4,0,5.5-2,6.4-4.2h1.3l-1,2.9v1H144.3z M139.1,94.9c0,2.7-1.5,3.9-4.3,3.9s-4.3-1.2-4.3-3.9s1.5-3.9,4.3-3.9
	S139.1,92.2,139.1,94.9z M146.2,94.9c0,5.7,4,8.4,9.1,8.4c5.1,0,9.1-2.8,9.1-8.4c0-5.6-4-8.4-9.1-8.4
	C150.2,86.5,146.2,89.3,146.2,94.9z M151.3,94.9c0-2.7,1.6-3.9,4-3.9c2.4,0,4,1.2,4,3.9c0,2.7-1.6,3.9-4,3.9
	C152.9,98.8,151.3,97.6,151.3,94.9z M167.9,97.2l-3.1,11.3l3.7,1l3.1-11.3L167.9,97.2z M0.9,122.8v22.2H6V138l-1-2.9h1.3
	c0.8,2.1,2.4,4.2,6.4,4.2c4.7,0,7-3.8,7-8.4c0-4.6-2.3-8.4-7-8.4c-4,0-5.5,2-6.4,4.2H5.1l1-2.9v-1H0.9z M6,130.9
	c0-2.8,1.5-3.9,4.3-3.9s4.3,1.2,4.3,3.9s-1.5,3.9-4.3,3.9S6,133.7,6,130.9z M21.3,130.9c0,5.7,4,8.4,9.1,8.4c5.1,0,9.1-2.8,9.1-8.4
	c0-5.6-4-8.4-9.1-8.4C25.4,122.5,21.3,125.3,21.3,130.9z M26.5,130.9c0-2.7,1.6-3.9,4-3.9c2.4,0,4,1.2,4,3.9c0,2.7-1.6,3.9-4,3.9
	C28,134.8,26.5,133.6,26.5,130.9z M40.8,139h14.1v-4.5h-4.5v-16.6c0-1.8-1-2.8-2.8-2.7l-6.2,0.2v4.5l3.8-0.2v14.8h-4.5V139z
	 M63.2,121.2c1.9,0,3.1-0.9,3.1-2.6c0-1.6-1.2-2.6-3.1-2.6s-3,0.9-3,2.6C60.1,120.3,61.3,121.2,63.2,121.2z M56.5,139h14.1v-4.5H66
	v-9.3c0-1.8-1-2.8-2.8-2.7l-6.1,0.3v4.5l3.9-0.2v7.4h-4.6V139z M82.6,120H86v-4.5h-2.8c-5.4,0-7.9,2.4-7.9,6.8v0.6h-3.1v4.5h3.1v7.2
	h-3.1v4.5h12.9v-4.5h-4.7v-7.2h4.7v-4.5h-4.7v-0.4C80.4,120.6,81.1,120,82.6,120z M103,119l-6.9-4.8l-6.9,4.8l2.7,2.6l4.2-2.9
	l4.2,2.9L103,119z M86.9,130.9c0,5.7,4,8.4,9.1,8.4c5.1,0,9.1-2.8,9.1-8.4c0-5.6-4-8.4-9.1-8.4C91,122.5,86.9,125.3,86.9,130.9z
	 M92.1,130.9c0-2.7,1.6-3.9,4-3.9c2.4,0,4,1.2,4,3.9c0,2.7-1.6,3.9-4,3.9C93.6,134.8,92.1,133.6,92.1,130.9z M117.1,127
	c2.5,0,3.3,1.1,3.3,4.1v7.9h5.1v-8.7c0-5-2.5-7.7-6.6-7.7c-3.5,0-5.5,2.3-6.1,5.2h-1.3l1-2.9v-2h-5.1V139h5.1v-6
	C112.5,128.5,114.3,127,117.1,127z M134.1,121.2c1.9,0,3.1-0.9,3.1-2.6c0-1.6-1.2-2.6-3.1-2.6s-3,0.9-3,2.6
	C131.1,120.3,132.2,121.2,134.1,121.2z M127.5,139h14.1v-4.5H137v-9.3c0-1.8-1-2.8-2.8-2.7l-6.1,0.3v4.5l3.9-0.2v7.4h-4.6V139z
	 M142.5,130.9c0,5.4,3.7,8.4,8.8,8.4c4.4,0,8.4-2.4,8.7-7h-5.1c-0.2,1.4-1.5,2.5-3.6,2.5c-2.4,0-3.7-1.4-3.7-3.9
	c0-2.5,1.3-3.9,3.7-3.9c2,0,3.4,1.1,3.6,2.5h5.1c-0.2-4.6-4.3-7-8.7-7C146.2,122.5,142.5,125.5,142.5,130.9z M161.6,130.9
	c0,5.7,4,8.4,9.1,8.4c5.1,0,9.1-2.8,9.1-8.4c0-5.6-4-8.4-9.1-8.4C165.6,122.5,161.6,125.3,161.6,130.9z M166.7,130.9
	c0-2.7,1.6-3.9,4-3.9c2.4,0,4,1.2,4,3.9c0,2.7-1.6,3.9-4,3.9C168.3,134.8,166.7,133.6,166.7,130.9z M0.3,166.7
	c0,4.6,2.8,8.6,9.1,8.6c5.6,0,8.3-3.7,8.6-6h-5.1c-0.3,1.2-1.7,1.9-3.5,1.9c-2.9,0-4.3-1.3-4.3-3.2h12.3v-1.6c0-4.9-3.5-7.9-8.5-7.9
	S0.3,161.6,0.3,166.7z M5.1,165.1c0-1.2,0.9-2.4,3.7-2.4s3.7,1.2,3.7,2.4H5.1z M36.1,157.2c1.9,0,3.1-0.9,3.1-2.6
	c0-1.6-1.2-2.6-3.1-2.6s-3,0.9-3,2.6C33.1,156.3,34.2,157.2,36.1,157.2z M29.4,175h14.1v-4.5h-4.6v-9.3c0-1.8-1-2.8-2.8-2.7
	l-6.1,0.3v4.5l3.9-0.2v7.4h-4.6V175z M55.2,163c2.5,0,3.3,1.1,3.3,4.1v7.9h5.1v-8.7c0-5-2.5-7.7-6.6-7.7c-3.5,0-5.5,2.3-6.1,5.2
	h-1.3l1-2.9v-2h-5.1V175h5.1v-6C50.6,164.5,52.4,163,55.2,163z M65.5,166.9c0,5.4,3.7,8.4,8.8,8.4c4.4,0,8.4-2.4,8.7-7h-5.1
	c-0.2,1.4-1.5,2.5-3.6,2.5c-2.4,0-3.7-1.4-3.7-3.9c0-2.5,1.3-3.9,3.7-3.9c2,0,3.4,1.1,3.6,2.5H83c-0.2-4.6-4.3-7-8.7-7
	C69.2,158.5,65.5,161.5,65.5,166.9z M84.6,166.9c0,5.7,4,8.4,9.1,8.4c5.1,0,9.1-2.8,9.1-8.4c0-5.6-4-8.4-9.1-8.4
	C88.7,158.5,84.6,161.3,84.6,166.9z M89.7,166.9c0-2.7,1.6-3.9,4-3.9c2.4,0,4,1.2,4,3.9c0,2.7-1.6,3.9-4,3.9
	C91.3,170.8,89.7,169.6,89.7,166.9z M126.7,158.5c-3.1,0-4.6,2-5.2,4.8h-0.9c-0.5-2.8-1.8-4.8-4.8-4.8c-3.1,0-4.6,2-5.2,4.8h-1.3
	l1-2.9v-1.6h-5.1V175h5.1v-5.7c0-3.9,0.6-6.3,3.4-6.3c1.9,0,2.4,0.9,2.4,3.9v8.1h5.1v-5.7c0-3.9,0.6-6.3,3.4-6.3
	c1.9,0,2.4,0.9,2.4,3.9v8.1h5.1v-8.4C132.1,162.2,130.8,158.5,126.7,158.5z M134.6,158.8v22.2h5.1V174l-1-2.9h1.3
	c0.8,2.1,2.4,4.2,6.4,4.2c4.7,0,7-3.8,7-8.4c0-4.6-2.3-8.4-7-8.4c-4,0-5.5,2-6.4,4.2h-1.3l1-2.9v-1H134.6z M139.8,166.9
	c0-2.8,1.5-3.9,4.3-3.9s4.3,1.2,4.3,3.9s-1.5,3.9-4.3,3.9S139.8,169.7,139.8,166.9z M154.7,175h14.1v-4.5h-4.5v-16.6
	c0-1.8-1-2.8-2.8-2.7l-6.2,0.2v4.5l3.8-0.2v14.8h-4.5V175z M169.8,166.7c0,4.6,2.8,8.6,9.1,8.6c5.6,0,8.3-3.7,8.6-6h-5.1
	c-0.3,1.2-1.7,1.9-3.5,1.9c-2.9,0-4.3-1.3-4.3-3.2h12.3v-1.6c0-4.9-3.5-7.9-8.5-7.9C173.3,158.5,169.8,161.6,169.8,166.7z
	 M174.6,165.1c0-1.2,0.9-2.4,3.7-2.4c2.8,0,3.7,1.2,3.7,2.4H174.6z M197,170.8v-7.5h5.3v-4.5H197v-4.6l-5.1,1.6v3H188v4.5h3.8v9.3
	c0,1.8,1,2.8,2.7,2.7l8.4-0.3v-4.5L197,170.8z M204.2,166.9c0,5.7,4,8.4,9.1,8.4c5.1,0,9.1-2.8,9.1-8.4c0-5.6-4-8.4-9.1-8.4
	C208.2,158.5,204.2,161.3,204.2,166.9z M209.3,166.9c0-2.7,1.6-3.9,4-3.9c2.4,0,4,1.2,4,3.9c0,2.7-1.6,3.9-4,3.9
	C210.9,170.8,209.3,169.6,209.3,166.9z M228.2,175.3c2.1,0,3.6-1.5,3.6-3.6c0-2-1.4-3.5-3.6-3.5c-2.2,0-3.5,1.5-3.5,3.5
	C224.7,173.8,226,175.3,228.2,175.3z"/>
</svg>
