<?xml version="1.0" encoding="utf-8"?>
<!-- Generator: Adobe Illustrator 25.0.1, SVG Export Plug-In . SVG Version: 6.00 Build 0)  -->
<svg version="1.1" id="Camada_1" xmlns="http://www.w3.org/2000/svg" xmlns:xlink="http://www.w3.org/1999/xlink" x="0px" y="0px"
	 viewBox="0 0 256 204" style="enable-background:new 0 0 256 204;" xml:space="preserve">
<path d="M0.9,23H17v-4.5H6v-4.6h9.4V9.5H6V4.9h11V0.4H0.9V23z M34.6,18.6c0-3.4-2.9-4.2-6-5.2c-2.6-0.8-4.2-1.3-4.2-2.1
	c0-0.6,0.7-0.9,1.9-0.9c1.8,0,2.6,0.9,2.6,2h5.1c0-3.1-2.2-5.9-7.7-5.9c-4.4,0-7,1.7-7,4.5c0,3.6,3.7,4.4,6.7,5.4
	c2.6,0.9,3.5,1.1,3.5,1.9c0,0.8-0.9,1.1-2.2,1.1c-2.7,0-3.6-1.1-3.6-2.3h-5.1c0,3.8,2.6,6.2,8.5,6.2C32.7,23.3,34.6,21.3,34.6,18.6z
	 M44.2,18.8v-7.5h5.3V6.8h-5.3V2.2l-5.1,1.6v3h-3.8v4.5h3.8v9.3c0,1.8,1,2.8,2.7,2.7l8.4-0.3v-4.5L44.2,18.8z M52.1,18.6
	c0,1.7,0.9,4.7,5.9,4.7c4.5,0,6.1-2.3,6.7-5H66l-0.8,1.9v0.3c0,1.5,0.9,2.4,2.4,2.4h3.6v-4.5h-2.3V14c0-5.3-3.9-7.5-8.4-7.5
	c-4.5,0-8,2.4-8,6.5h4.8c0-1.5,1.2-2.3,3.2-2.3c2.2,0,3.2,0.8,3.2,2.1l-5.1,0.7C53.8,14.2,52.1,15.8,52.1,18.6z M57.2,17.6
	c0-0.9,0.8-1.2,2.3-1.4l4.1-0.6c0,2-1.9,3.2-4.7,3.2C58.1,18.8,57.2,18.6,57.2,17.6z M94.7,6.5c-3.1,0-4.6,2-5.2,4.8h-0.9
	c-0.5-2.8-1.8-4.8-4.8-4.8c-3.1,0-4.6,2-5.2,4.8h-1.3l1-2.9V6.8H73V23h5.1v-5.7c0-3.9,0.6-6.3,3.4-6.3c1.9,0,2.4,0.9,2.4,3.9V23h5.1
	v-5.7c0-3.9,0.6-6.3,3.4-6.3c1.9,0,2.4,0.9,2.4,3.9V23h5.1v-8.4C100.1,10.2,98.8,6.5,94.7,6.5z M102,14.9c0,5.7,4,8.4,9.1,8.4
	c5.1,0,9.1-2.8,9.1-8.4c0-5.6-4-8.4-9.1-8.4C106,6.5,102,9.3,102,14.9z M107.1,14.9c0-2.7,1.6-3.9,4-3.9c2.4,0,4,1.2,4,3.9
	c0,2.7-1.6,3.9-4,3.9C108.7,18.8,107.1,17.6,107.1,14.9z M137.5,18.6c0-3.4-2.9-4.2-6-5.2c-2.6-0.8-4.2-1.3-4.2-2.1
	c0-0.6,0.7-0.9,1.9-0.9c1.8,0,2.6,0.9,2.6,2h5.1c0-3.1-2.2-5.9-7.7-5.9c-4.4,0-7,1.7-7,4.5c0,3.6,3.7,4.4,6.7,5.4
	c2.6,0.9,3.5,1.1,3.5,1.9c0,0.8-0.9,1.1-2.2,1.1c-2.7,0-3.6-1.1-3.6-2.3h-5.1c0,3.8,2.6,6.2,8.5,6.2
	C135.5,23.3,137.5,21.3,137.5,18.6z M0.9,59H6V47.1l8.2,0.2v-4.5L3.7,42.6c-1.8,0-2.8,0.9-2.8,2.7V59z M15.6,50.7
	c0,4.6,2.8,8.6,9.1,8.6c5.6,0,8.3-3.7,8.6-6h-5.1c-0.3,1.2-1.7,1.9-3.5,1.9c-2.9,0-4.3-1.3-4.3-3.2h12.3v-1.6c0-4.9-3.5-7.9-8.5-7.9
	S15.6,45.6,15.6,50.7z M20.4,49.1c0-1.2,0.9-2.4,3.7-2.4s3.7,1.2,3.7,2.4H20.4z M35.1,42.8v22.2h5.1V58l-1-2.9h1.3
	c0.8,2.1,2.4,4.2,6.4,4.2c4.7,0,7-3.8,7-8.4s-2.3-8.4-7-8.4c-4,0-5.5,2-6.4,4.2h-1.3l1-2.9v-1H35.1z M40.2,50.9
	c0-2.8,1.5-3.9,4.3-3.9c2.8,0,4.3,1.2,4.3,3.9c0,2.8-1.5,3.9-4.3,3.9C41.8,54.8,40.2,53.7,40.2,50.9z M55.5,50.7
	c0,4.6,2.8,8.6,9.1,8.6c5.6,0,8.3-3.7,8.6-6H68c-0.3,1.2-1.7,1.9-3.5,1.9c-2.9,0-4.3-1.3-4.3-3.2h12.3v-1.6c0-4.9-3.5-7.9-8.5-7.9
	S55.5,45.6,55.5,50.7z M60.3,49.1c0-1.2,0.9-2.4,3.7-2.4s3.7,1.2,3.7,2.4H60.3z M85.1,47c2.5,0,3.3,1.1,3.3,4.1V59h5.1v-8.7
	c0-5-2.5-7.7-6.6-7.7c-3.5,0-5.5,2.3-6.1,5.2h-1.3l1-2.9v-2h-5.1V59h5.1v-6C80.5,48.5,82.3,47,85.1,47z M111.2,54.6
	c0-3.4-2.9-4.2-6-5.2c-2.6-0.8-4.2-1.3-4.2-2.1c0-0.6,0.7-0.9,1.9-0.9c1.8,0,2.6,0.9,2.6,2h5.1c0-3.1-2.2-5.9-7.7-5.9
	c-4.4,0-7,1.7-7,4.5c0,3.6,3.7,4.4,6.7,5.4c2.6,0.9,3.5,1.1,3.5,1.9c0,0.8-0.9,1.1-2.2,1.1c-2.7,0-3.6-1.1-3.6-2.3h-5.1
	c0,3.8,2.6,6.2,8.5,6.2C109.2,59.3,111.2,57.3,111.2,54.6z M112.8,54.6c0,1.7,0.9,4.7,5.9,4.7c4.5,0,6.1-2.3,6.7-5h1.3l-0.8,1.9v0.3
	c0,1.5,0.9,2.4,2.4,2.4h3.6v-4.5h-2.3V50c0-5.3-3.9-7.5-8.4-7.5c-4.5,0-8,2.4-8,6.5h4.8c0-1.5,1.2-2.3,3.2-2.3
	c2.2,0,3.2,0.8,3.2,2.1l-5.1,0.7C114.4,50.2,112.8,51.8,112.8,54.6z M117.9,53.6c0-0.9,0.8-1.2,2.3-1.4l4.1-0.6c0,2-1.9,3.2-4.7,3.2
	C118.8,54.8,117.9,54.6,117.9,53.6z M143.4,47c2.5,0,3.3,1.1,3.3,4.1V59h5.1v-8.7c0-5-2.5-7.7-6.6-7.7c-3.5,0-5.5,2.3-6.1,5.2h-1.3
	l1-2.9v-2h-5.1V59h5.1v-6C138.8,48.5,140.6,47,143.4,47z M172.6,59V35.5h-5.1v8.4l1,2.9h-1.3c-0.8-2.1-2.4-4.2-6.4-4.2
	c-4.7,0-7,3.8-7,8.4s2.3,8.4,7,8.4c4,0,5.5-2,6.4-4.2h1.3l-1,2.9v1H172.6z M167.5,50.9c0,2.7-1.5,3.9-4.3,3.9s-4.3-1.2-4.3-3.9
	s1.5-3.9,4.3-3.9S167.5,48.2,167.5,50.9z M174.5,50.9c0,5.7,4,8.4,9.1,8.4c5.1,0,9.1-2.8,9.1-8.4c0-5.6-4-8.4-9.1-8.4
	C178.6,42.5,174.5,45.3,174.5,50.9z M179.6,50.9c0-2.7,1.6-3.9,4-3.9c2.4,0,4,1.2,4,3.9c0,2.7-1.6,3.9-4,3.9
	C181.2,54.8,179.6,53.6,179.6,50.9z M0.9,78.8v22.2H6V94l-1-2.9h1.3c0.8,2.1,2.4,4.2,6.4,4.2c4.7,0,7-3.8,7-8.4c0-4.6-2.3-8.4-7-8.4
	c-4,0-5.5,2-6.4,4.2H5.1l1-2.9v-1H0.9z M6,86.9c0-2.8,1.5-3.9,4.3-3.9s4.3,1.2,4.3,3.9c0,2.8-1.5,3.9-4.3,3.9S6,89.7,6,86.9z
	 M21.3,86.9c0,5.7,4,8.4,9.1,8.4c5.1,0,9.1-2.8,9.1-8.4c0-5.6-4-8.4-9.1-8.4C25.4,78.5,21.3,81.3,21.3,86.9z M26.5,86.9
	c0-2.7,1.6-3.9,4-3.9c2.4,0,4,1.2,4,3.9c0,2.7-1.6,3.9-4,3.9C28,90.8,26.5,89.6,26.5,86.9z M56.9,90.6c0-3.4-2.9-4.2-6-5.2
	c-2.6-0.8-4.2-1.3-4.2-2.1c0-0.6,0.7-0.9,1.9-0.9c1.8,0,2.6,0.9,2.6,2h5.1c0-3.1-2.2-5.9-7.7-5.9c-4.4,0-7,1.7-7,4.5
	c0,3.6,3.7,4.4,6.7,5.4c2.6,0.9,3.5,1.1,3.5,1.9c0,0.8-0.9,1.1-2.2,1.1c-2.7,0-3.6-1.1-3.6-2.3h-5.1c0,3.8,2.6,6.2,8.5,6.2
	C54.9,95.3,56.9,93.3,56.9,90.6z M74.2,90.6c0-3.4-2.9-4.2-6-5.2c-2.6-0.8-4.2-1.3-4.2-2.1c0-0.6,0.7-0.9,1.9-0.9
	c1.8,0,2.6,0.9,2.6,2h5.1c0-3.1-2.2-5.9-7.7-5.9c-4.4,0-7,1.7-7,4.5c0,3.6,3.7,4.4,6.7,5.4c2.6,0.9,3.5,1.1,3.5,1.9
	c0,0.8-0.9,1.1-2.2,1.1c-2.7,0-3.6-1.1-3.6-2.3h-5.1c0,3.8,2.6,6.2,8.5,6.2C72.2,95.3,74.2,93.3,74.2,90.6z M82.7,77.2
	c1.9,0,3.1-0.9,3.1-2.6c0-1.6-1.2-2.6-3.1-2.6s-3,0.9-3,2.6C79.7,76.3,80.8,77.2,82.7,77.2z M76.1,95h14.1v-4.5h-4.6v-9.3
	c0-1.8-1-2.8-2.8-2.7l-6.1,0.3v4.5l3.9-0.2v7.4h-4.6V95z M92.1,95h5.1v-1l-1-2.9h1.3c0.8,2.1,2.4,4.2,6.4,4.2c4.7,0,7-3.8,7-8.4
	c0-4.6-2.3-8.4-7-8.4c-4,0-5.5,2-6.4,4.2h-1.3l1-2.9v-8.4h-5.1V95z M97.2,86.9c0-2.7,1.5-3.9,4.3-3.9c2.8,0,4.3,1.2,4.3,3.9
	s-1.5,3.9-4.3,3.9C98.8,90.8,97.2,89.6,97.2,86.9z M118.8,77.2c1.9,0,3.1-0.9,3.1-2.6c0-1.6-1.2-2.6-3.1-2.6s-3,0.9-3,2.6
	C115.8,76.3,117,77.2,118.8,77.2z M112.2,95h14.1v-4.5h-4.6v-9.3c0-1.8-1-2.8-2.8-2.7l-6.1,0.3v4.5l3.9-0.2v7.4h-4.6V95z M127.9,95
	H142v-4.5h-4.5V73.9c0-1.8-1-2.8-2.8-2.7l-6.2,0.2V76l3.8-0.2v14.8h-4.5V95z M150.2,77.2c1.9,0,3.1-0.9,3.1-2.6
	c0-1.6-1.2-2.6-3.1-2.6s-3,0.9-3,2.6C147.2,76.3,148.3,77.2,150.2,77.2z M143.6,95h14.1v-4.5h-4.6v-9.3c0-1.8-1-2.8-2.8-2.7
	l-6.1,0.3v4.5l3.9-0.2v7.4h-4.6V95z M177.4,95V71.5h-5.1v8.4l1,2.9H172c-0.8-2.1-2.4-4.2-6.4-4.2c-4.7,0-7,3.8-7,8.4
	c0,4.6,2.3,8.4,7,8.4c4,0,5.5-2,6.4-4.2h1.3l-1,2.9v1H177.4z M172.3,86.9c0,2.7-1.5,3.9-4.3,3.9s-4.3-1.2-4.3-3.9s1.5-3.9,4.3-3.9
	S172.3,84.2,172.3,86.9z M179.7,90.6c0,1.7,0.9,4.7,5.9,4.7c4.5,0,6.1-2.3,6.7-5h1.3l-0.8,1.9v0.3c0,1.5,0.9,2.4,2.4,2.4h3.6v-4.5
	h-2.3V86c0-5.3-3.9-7.5-8.4-7.5c-4.5,0-8,2.4-8,6.5h4.8c0-1.5,1.2-2.3,3.2-2.3c2.2,0,3.2,0.8,3.2,2.1l-5.1,0.7
	C181.4,86.2,179.7,87.8,179.7,90.6z M184.8,89.6c0-0.9,0.8-1.2,2.3-1.4l4.1-0.6c0,2-1.9,3.2-4.7,3.2
	C185.7,90.8,184.8,90.6,184.8,89.6z M218.5,95V71.5h-5.1v8.4l1,2.9H213c-0.8-2.1-2.4-4.2-6.4-4.2c-4.7,0-7,3.8-7,8.4
	c0,4.6,2.3,8.4,7,8.4c4,0,5.5-2,6.4-4.2h1.3l-1,2.9v1H218.5z M213.4,86.9c0,2.7-1.5,3.9-4.3,3.9s-4.3-1.2-4.3-3.9s1.5-3.9,4.3-3.9
	S213.4,84.2,213.4,86.9z M220.4,86.7c0,4.6,2.8,8.6,9.1,8.6c5.6,0,8.3-3.7,8.6-6h-5.1c-0.3,1.2-1.7,1.9-3.5,1.9
	c-2.9,0-4.3-1.3-4.3-3.2h12.3v-1.6c0-4.9-3.5-7.9-8.5-7.9C223.9,78.5,220.4,81.6,220.4,86.7z M225.2,85.1c0-1.2,0.9-2.4,3.7-2.4
	c2.8,0,3.7,1.2,3.7,2.4H225.2z M255.3,90.6c0-3.4-2.9-4.2-6-5.2c-2.6-0.8-4.2-1.3-4.2-2.1c0-0.6,0.7-0.9,1.9-0.9
	c1.8,0,2.6,0.9,2.6,2h5.1c0-3.1-2.2-5.9-7.7-5.9c-4.4,0-7,1.7-7,4.5c0,3.6,3.7,4.4,6.7,5.4c2.6,0.9,3.5,1.1,3.5,1.9
	c0,0.8-0.9,1.1-2.2,1.1c-2.7,0-3.6-1.1-3.6-2.3h-5.1c0,3.8,2.6,6.2,8.5,6.2C253.4,95.3,255.3,93.3,255.3,90.6z M0.3,122.7
	c0,4.6,2.8,8.6,9.1,8.6c5.6,0,8.3-3.7,8.6-6h-5.1c-0.3,1.2-1.7,1.9-3.5,1.9c-2.9,0-4.3-1.3-4.3-3.2h12.3v-1.6c0-4.9-3.5-7.9-8.5-7.9
	S0.3,117.6,0.3,122.7z M5.1,121.1c0-1.2,0.9-2.4,3.7-2.4s3.7,1.2,3.7,2.4H5.1z M30.1,114.8v22.2h5.1V130l-1-2.9h1.3
	c0.8,2.1,2.4,4.2,6.4,4.2c4.7,0,7-3.8,7-8.4c0-4.6-2.3-8.4-7-8.4c-4,0-5.5,2-6.4,4.2h-1.3l1-2.9v-1H30.1z M35.2,122.9
	c0-2.8,1.5-3.9,4.3-3.9c2.8,0,4.3,1.2,4.3,3.9c0,2.8-1.5,3.9-4.3,3.9C36.7,126.8,35.2,125.7,35.2,122.9z M50.2,131h14.1v-4.5h-4.5
	v-16.6c0-1.8-1-2.8-2.8-2.7l-6.2,0.2v4.5l3.8-0.2v14.8h-4.5V131z M65.9,126.6c0,1.7,0.9,4.7,5.9,4.7c4.5,0,6.1-2.3,6.7-5h1.3
	l-0.8,1.9v0.3c0,1.5,0.9,2.4,2.4,2.4h3.6v-4.5h-2.3V122c0-5.3-3.9-7.5-8.4-7.5c-4.5,0-8,2.4-8,6.5H71c0-1.5,1.2-2.3,3.2-2.3
	c2.2,0,3.2,0.8,3.2,2.1l-5.1,0.7C67.5,122.2,65.9,123.8,65.9,126.6z M71,125.6c0-0.9,0.8-1.2,2.3-1.4l4.1-0.6c0,2-1.9,3.2-4.7,3.2
	C71.9,126.8,71,126.6,71,125.6z M93.2,126.8v-7.5h5.3v-4.5h-5.3v-4.6l-5.1,1.6v3h-3.8v4.5h3.8v9.3c0,1.8,1,2.8,2.7,2.7l8.4-0.3v-4.5
	L93.2,126.8z M101.1,126.6c0,1.7,0.9,4.7,5.9,4.7c4.5,0,6.1-2.3,6.7-5h1.3l-0.8,1.9v0.3c0,1.5,0.9,2.4,2.4,2.4h3.6v-4.5h-2.3V122
	c0-5.3-3.9-7.5-8.4-7.5c-4.5,0-8,2.4-8,6.5h4.8c0-1.5,1.2-2.3,3.2-2.3c2.2,0,3.2,0.8,3.2,2.1l-5.1,0.7
	C102.7,122.2,101.1,123.8,101.1,126.6z M106.2,125.6c0-0.9,0.8-1.2,2.3-1.4l4.1-0.6c0,2-1.9,3.2-4.7,3.2
	C107.1,126.8,106.2,126.6,106.2,125.6z M131.7,112h3.4v-4.5h-2.8c-5.4,0-7.9,2.4-7.9,6.8v0.6h-3.1v4.5h3.1v7.2h-3.1v4.5h12.9v-4.5
	h-4.7v-7.2h4.7v-4.5h-4.7v-0.4C129.5,112.6,130.2,112,131.7,112z M136.1,122.9c0,5.7,4,8.4,9.1,8.4c5.1,0,9.1-2.8,9.1-8.4
	c0-5.6-4-8.4-9.1-8.4C140.1,114.5,136.1,117.3,136.1,122.9z M141.2,122.9c0-2.7,1.6-3.9,4-3.9c2.4,0,4,1.2,4,3.9
	c0,2.7-1.6,3.9-4,3.9C142.7,126.8,141.2,125.6,141.2,122.9z M156.5,131h5.1v-11.9l8.2,0.2v-4.5l-10.6-0.3c-1.8,0-2.8,0.9-2.8,2.7
	V131z M193.4,114.5c-3.1,0-4.6,2-5.2,4.8h-0.9c-0.5-2.8-1.8-4.8-4.8-4.8c-3.1,0-4.6,2-5.2,4.8H176l1-2.9v-1.6h-5.1V131h5.1v-5.7
	c0-3.9,0.6-6.3,3.4-6.3c1.9,0,2.4,0.9,2.4,3.9v8.1h5.1v-5.7c0-3.9,0.6-6.3,3.4-6.3c1.9,0,2.4,0.9,2.4,3.9v8.1h5.1v-8.4
	C198.8,118.2,197.6,114.5,193.4,114.5z M201.1,126.6c0,1.7,0.9,4.7,5.9,4.7c4.5,0,6.1-2.3,6.7-5h1.3l-0.8,1.9v0.3
	c0,1.5,0.9,2.4,2.4,2.4h3.6v-4.5h-2.3V122c0-5.3-3.9-7.5-8.4-7.5c-4.5,0-8,2.4-8,6.5h4.8c0-1.5,1.2-2.3,3.2-2.3
	c2.2,0,3.2,0.8,3.2,2.1l-5.1,0.7C202.7,122.2,201.1,123.8,201.1,126.6z M206.2,125.6c0-0.9,0.8-1.2,2.3-1.4l4.1-0.6
	c0,2-1.9,3.2-4.7,3.2C207.1,126.8,206.2,126.6,206.2,125.6z M237.1,126.6c0-3.4-2.9-4.2-6-5.2c-2.6-0.8-4.2-1.3-4.2-2.1
	c0-0.6,0.7-0.9,1.9-0.9c1.8,0,2.6,0.9,2.6,2h5.1c0-3.1-2.2-5.9-7.7-5.9c-4.4,0-7,1.7-7,4.5c0,3.6,3.7,4.4,6.7,5.4
	c2.6,0.9,3.5,1.1,3.5,1.9c0,0.8-0.9,1.1-2.2,1.1c-2.7,0-3.6-1.1-3.6-2.3H221c0,3.8,2.6,6.2,8.5,6.2
	C235.1,131.3,237.1,129.3,237.1,126.6z M19.1,167v-23.5H14v8.4l1,2.9h-1.3c-0.8-2.1-2.4-4.2-6.4-4.2c-4.7,0-7,3.8-7,8.4
	c0,4.6,2.3,8.4,7,8.4c4,0,5.5-2,6.4-4.2h1.3l-1,2.9v1H19.1z M14,158.9c0,2.7-1.5,3.9-4.3,3.9s-4.3-1.2-4.3-3.9
	c0-2.7,1.5-3.9,4.3-3.9S14,156.2,14,158.9z M21,158.7c0,4.6,2.8,8.6,9.1,8.6c5.6,0,8.3-3.7,8.6-6h-5.1c-0.3,1.2-1.7,1.9-3.5,1.9
	c-2.9,0-4.3-1.3-4.3-3.2h12.3v-1.6c0-4.9-3.5-7.9-8.5-7.9S21,153.6,21,158.7z M25.8,157.1c0-1.2,0.9-2.4,3.7-2.4s3.7,1.2,3.7,2.4
	H25.8z M50.2,162.6c0,1.7,0.9,4.7,5.9,4.7c4.5,0,6.1-2.3,6.7-5H64l-0.8,1.9v0.3c0,1.5,0.9,2.4,2.4,2.4h3.6v-4.5h-2.3V158
	c0-5.3-3.9-7.5-8.4-7.5c-4.5,0-8,2.4-8,6.5h4.8c0-1.5,1.2-2.3,3.2-2.3c2.2,0,3.2,0.8,3.2,2.1l-5.1,0.7
	C51.9,158.2,50.2,159.8,50.2,162.6z M55.3,161.6c0-0.9,0.8-1.2,2.3-1.4l4.1-0.6c0,2-1.9,3.2-4.7,3.2
	C56.2,162.8,55.3,162.6,55.3,161.6z M71.1,167h5.1v-11.9l8.2,0.2v-4.5l-10.6-0.3c-1.8,0-2.8,0.9-2.8,2.7V167z M94.4,162.8v-7.5h5.3
	v-4.5h-5.3v-4.6l-5.1,1.6v3h-3.8v4.5h3.8v9.3c0,1.8,1,2.8,2.7,2.7l8.4-0.3v-4.5L94.4,162.8z M101.6,158.7c0,4.6,2.8,8.6,9.1,8.6
	c5.6,0,8.3-3.7,8.6-6h-5.1c-0.3,1.2-1.7,1.9-3.5,1.9c-2.9,0-4.3-1.3-4.3-3.2h12.3v-1.6c0-4.9-3.5-7.9-8.5-7.9
	C105.1,150.5,101.6,153.6,101.6,158.7z M106.4,157.1c0-1.2,0.9-2.4,3.7-2.4s3.7,1.2,3.7,2.4H106.4z M141.1,155
	c2.5,0,3.3,1.1,3.3,4.1v7.9h5.1v-8.7c0-5-2.5-7.7-6.6-7.7c-3.5,0-5.5,2.3-6.1,5.2h-1.3l1-2.9v-2h-5.1V167h5.1v-6
	C136.5,156.5,138.3,155,141.1,155z M151.8,162.6c0,1.7,0.9,4.7,5.9,4.7c4.5,0,6.1-2.3,6.7-5h1.3l-0.8,1.9v0.3c0,1.5,0.9,2.4,2.4,2.4
	h3.6v-4.5h-2.3V158c0-5.3-3.9-7.5-8.4-7.5c-4.5,0-8,2.4-8,6.5h4.8c0-1.5,1.2-2.3,3.2-2.3c2.2,0,3.2,0.8,3.2,2.1l-5.1,0.7
	C153.5,158.2,151.8,159.8,151.8,162.6z M156.9,161.6c0-0.9,0.8-1.2,2.3-1.4l4.1-0.6c0,2-1.9,3.2-4.7,3.2
	C157.8,162.8,156.9,162.6,156.9,161.6z M6.9,185.2c1.9,0,3.1-0.9,3.1-2.6c0-1.6-1.2-2.6-3.1-2.6s-3,0.9-3,2.6
	C3.9,184.3,5,185.2,6.9,185.2z M0.3,203h14.1v-4.5H9.8v-9.3c0-1.8-1-2.8-2.8-2.7l-6.1,0.3v4.5l3.9-0.2v7.4H0.3V203z M26,191
	c2.5,0,3.3,1.1,3.3,4.1v7.9h5.1v-8.7c0-5-2.5-7.7-6.6-7.7c-3.5,0-5.5,2.3-6.1,5.2h-1.3l1-2.9v-2h-5.1V203h5.1v-6
	C21.4,192.5,23.2,191,26,191z M45,198.8v-7.5h5.3v-4.5H45v-4.6l-5.1,1.6v3h-3.8v4.5h3.8v9.3c0,1.8,1,2.8,2.7,2.7L51,203v-4.5
	L45,198.8z M52.2,194.7c0,4.6,2.8,8.6,9.1,8.6c5.6,0,8.3-3.7,8.6-6h-5.1c-0.3,1.2-1.7,1.9-3.5,1.9c-2.9,0-4.3-1.3-4.3-3.2h12.3v-1.6
	c0-4.9-3.5-7.9-8.5-7.9S52.2,189.6,52.2,194.7z M57,193.1c0-1.2,0.9-2.4,3.7-2.4s3.7,1.2,3.7,2.4H57z M72.1,203h5.1v-11.9l8.2,0.2
	v-4.5l-10.6-0.3c-1.8,0-2.8,0.9-2.8,2.7V203z M97.1,191c2.5,0,3.3,1.1,3.3,4.1v7.9h5.1v-8.7c0-5-2.5-7.7-6.6-7.7
	c-3.5,0-5.5,2.3-6.1,5.2h-1.3l1-2.9v-2h-5.1V203h5.1v-6C92.5,192.5,94.3,191,97.1,191z M107.5,194.7c0,4.6,2.8,8.6,9.1,8.6
	c5.6,0,8.3-3.7,8.6-6H120c-0.3,1.2-1.7,1.9-3.5,1.9c-2.9,0-4.3-1.3-4.3-3.2h12.3v-1.6c0-4.9-3.5-7.9-8.5-7.9
	C111,186.5,107.5,189.6,107.5,194.7z M112.3,193.1c0-1.2,0.9-2.4,3.7-2.4s3.7,1.2,3.7,2.4H112.3z M134.7,198.8v-7.5h5.3v-4.5h-5.3
	v-4.6l-5.1,1.6v3h-3.8v4.5h3.8v9.3c0,1.8,1,2.8,2.7,2.7l8.4-0.3v-4.5L134.7,198.8z"/>
</svg>
