<?xml version="1.0" encoding="utf-8"?>
<!-- Generator: Adobe Illustrator 25.0.1, SVG Export Plug-In . SVG Version: 6.00 Build 0)  -->
<svg version="1.1" id="Camada_1" xmlns="http://www.w3.org/2000/svg" xmlns:xlink="http://www.w3.org/1999/xlink" x="0px" y="0px"
	 viewBox="0 0 214 109" style="enable-background:new 0 0 214 109;" xml:space="preserve">
<path d="M0.8,46h16.6c11.8,0,21.2-1.7,21.2-12c0-9.6-7.3-10.2-14.1-10.5V21c4.8-0.4,10.8-0.6,10.8-9c0-8.9-6.1-11.1-18.6-11.1H0.8
	V46z M11.1,18V9.8H18c4.2,0,7.1,0,7.1,4.1S22.2,18,18,18H11.1z M11.1,37V27h7.7c6.1,0,9.7,0,9.7,5.1c0,5-3.6,5-9.7,5H11.1z
	 M42.5,29.8c0,11.3,8.1,16.8,18.2,16.8c10.1,0,18.2-5.5,18.2-16.8c0-11.3-8.1-16.8-18.2-16.8C50.6,13,42.5,18.5,42.5,29.8z
	 M52.7,29.8c0-5.4,3.1-7.8,8-7.8c4.8,0,7.9,2.4,7.9,7.8c0,5.4-3.1,7.9-7.9,7.9C55.9,37.7,52.7,35.2,52.7,29.8z M82.1,29.8
	c0,10.8,7.4,16.8,17.7,16.8c8.8,0,16.9-4.8,17.3-14h-10.2c-0.4,2.9-3,5.1-7.1,5.1c-4.9,0-7.4-2.9-7.4-7.9c0-4.9,2.6-7.8,7.4-7.8
	c4.1,0,6.7,2.2,7.1,5.1h10.2c-0.4-9.2-8.5-14-17.3-14C89.5,13,82.1,19.1,82.1,29.8z M120.3,37.2c0,3.3,1.7,9.5,11.8,9.5
	c9,0,12.2-4.5,13.4-9.9h2.6l-1.6,3.8v0.6c0,3.1,1.7,4.8,4.8,4.8h7.1v-9h-4.7V28c0-10.6-7.8-14.9-16.7-14.9c-9,0-16,4.8-16,13h9.6
	c0-2.9,2.3-4.7,6.4-4.7c4.4,0,6.5,1.6,6.5,4.2L133.2,27C123.6,28.3,120.3,31.6,120.3,37.2z M130.6,35.2c0-1.9,1.5-2.3,4.6-2.8
	l8.3-1.2c0,4-3.7,6.3-9.3,6.3C132.3,37.7,130.6,37.1,130.6,35.2z M0.8,108h10.2V71.8l-1.9-6.4h2.6L19,108h19.8L46,65.4h2.6l-1.9,6.4
	V108h10.2V62.9H36.7l-6.6,42.6h-2.6L21,62.9H0.8V108z M74.6,72.5c3.8,0,6.1-1.8,6.1-5.1c0-3.3-2.4-5.1-6.1-5.1s-6,1.9-6,5.1
	C68.6,70.7,70.8,72.5,74.6,72.5z M61.4,108h28.2v-9h-9.2V80.4c0-3.6-2-5.6-5.6-5.4l-12.2,0.6v9l7.9-0.4V99h-9.2V108z M96.9,65.2
	l1.7,7.3l25-5.5l-1.7-7.3L96.9,65.2z M109.7,99.7c-4.9,0-6.7-2.2-6.7-8.1V75.7H92.8v17.5c0,10,5,15.5,13.2,15.5
	c6.9,0,10.9-4.5,12.2-10.3h2.6l-1.9,5.8v3.9h10.2V75.7h-10.2v12C118.9,96.7,115.2,99.7,109.7,99.7z M170.6,108V61h-10.2v16.7
	l1.9,5.8h-2.6C158,79.1,155,75,147,75c-9.3,0-14,7.6-14,16.8s4.7,16.8,14,16.8c8,0,11.1-4.1,12.7-8.4h2.6l-1.9,5.8v2H170.6z
	 M160.3,91.8c0,5.4-3.1,7.9-8.6,7.9c-5.5,0-8.6-2.4-8.6-7.9s3.1-7.8,8.6-7.8C157.3,84,160.3,86.4,160.3,91.8z M175.1,99.2
	c0,3.3,1.7,9.5,11.8,9.5c9,0,12.2-4.5,13.4-9.9h2.6l-1.6,3.8v0.6c0,3.1,1.7,4.8,4.8,4.8h7.1v-9h-4.7V90c0-10.6-7.8-14.9-16.7-14.9
	c-9,0-16,4.8-16,13h9.6c0-2.9,2.3-4.7,6.4-4.7c4.4,0,6.5,1.6,6.5,4.2L188,89C178.4,90.3,175.1,93.6,175.1,99.2z M185.3,97.2
	c0-1.9,1.5-2.3,4.6-2.8l8.3-1.2c0,4-3.7,6.3-9.3,6.3C187.1,99.7,185.3,99.1,185.3,97.2z"/>
</svg>
