<?xml version="1.0" encoding="utf-8"?>
<!-- Generator: Adobe Illustrator 25.0.1, SVG Export Plug-In . SVG Version: 6.00 Build 0)  -->
<svg version="1.1" id="Camada_1" xmlns="http://www.w3.org/2000/svg" xmlns:xlink="http://www.w3.org/1999/xlink" x="0px" y="0px"
	 viewBox="0 0 958 487" style="enable-background:new 0 0 958 487;" xml:space="preserve">
<path d="M1.3,205h-1v1h1V205z M107.8,103.9h-1v1l1,0L107.8,103.9z M107.8,92.4l-0.1-1l-0.9,0.1v0.9H107.8z M1.3,2V1h-1v1H1.3z
	 M47.4,79.1h-1v1h1V79.1z M47.4,42.3v-1h-1v1H47.4z M47.4,164.7h-1v1h1V164.7z M47.4,119.5v-1h-1v1H47.4z M1.3,206h74.9v-2H1.3V206z
	 M76.2,206c26.5,0,50.5-1.9,67.9-9.7c8.7-3.9,15.8-9.3,20.8-16.7c4.9-7.4,7.6-16.7,7.6-28.4h-2c0,11.4-2.6,20.3-7.3,27.3
	c-4.7,7-11.5,12.2-19.9,16c-17,7.6-40.6,9.6-67.1,9.6V206z M172.5,151.1c0-10.9-2.1-19.4-5.7-25.9c-3.7-6.6-8.9-11.1-15.1-14.3
	c-12.3-6.4-28.4-7.4-43.8-8l-0.1,2c15.4,0.6,31.1,1.6,43,7.7c5.9,3.1,10.8,7.4,14.2,13.5c3.5,6.2,5.5,14.3,5.5,25H172.5z
	 M108.8,103.9V92.4h-2v11.5H108.8z M107.9,93.4c10.7-0.9,23.1-1.5,32.8-6.8c4.9-2.7,9.1-6.5,12.1-12.2c3-5.6,4.7-13,4.7-22.6h-2
	c0,9.4-1.7,16.4-4.5,21.7c-2.8,5.3-6.7,8.9-11.3,11.4c-9.2,5.1-21.2,5.7-32,6.6L107.9,93.4z M157.5,51.8c0-10.1-1.7-18.4-5.3-25.1
	c-3.6-6.7-8.9-11.9-16-15.7C122.1,3.4,100.9,1,72.7,1v2c28.2,0,48.9,2.5,62.6,9.8c6.8,3.6,11.8,8.5,15.2,14.8c3.4,6.4,5,14.3,5,24.2
	H157.5z M72.7,1H1.3v2h71.4V1z M0.3,2v203h2V2H0.3z M48.4,79.1V42.3h-2v36.9H48.4z M47.4,43.3h31.1v-2H47.4V43.3z M78.5,43.3
	c4.7,0,9,0,12.8,0.3c3.8,0.3,7.1,0.9,9.8,1.9c2.7,1.1,4.7,2.7,6.1,5.1c1.4,2.4,2.2,5.7,2.2,10.1h2c0-4.7-0.8-8.4-2.5-11.2
	c-1.7-2.8-4.1-4.7-7.1-5.9c-3-1.2-6.5-1.8-10.4-2.1c-3.9-0.3-8.3-0.3-13-0.3V43.3z M109.4,60.7c0,4.5-0.8,7.8-2.2,10.1
	c-1.4,2.4-3.5,4-6.1,5.1c-2.7,1.1-6,1.7-9.8,1.9c-3.8,0.3-8.1,0.3-12.8,0.3v2c4.7,0,9,0,13-0.3c3.9-0.3,7.4-0.9,10.4-2.1
	c3-1.2,5.4-3.1,7.1-5.9c1.7-2.8,2.5-6.4,2.5-11.2H109.4z M78.5,78.1H47.4v2h31.1V78.1z M48.4,164.7v-45.2h-2v45.2H48.4z M47.4,120.5
	h34.6v-2H47.4V120.5z M81.9,120.5c6.8,0,13,0,18.3,0.4c5.3,0.4,9.8,1.1,13.4,2.4c3.6,1.4,6.2,3.4,8,6.3c1.8,3,2.8,7.1,2.8,12.6h2
	c0-5.8-1-10.3-3.1-13.7c-2.1-3.4-5.1-5.7-9-7.2c-3.9-1.5-8.6-2.2-14-2.6c-5.4-0.4-11.6-0.4-18.4-0.4V120.5z M124.4,142.2
	c0,5.5-1,9.5-2.8,12.5c-1.8,2.9-4.5,4.9-8,6.3c-3.6,1.4-8.1,2-13.4,2.4c-5.3,0.3-11.4,0.3-18.3,0.3v2c6.8,0,13,0,18.4-0.4
	c5.4-0.4,10.1-1.1,14-2.5c3.9-1.5,7-3.7,9-7.1c2.1-3.4,3.1-7.8,3.1-13.5H124.4z M81.9,163.7H47.4v2h34.6V163.7z M187.7,132.1
	c0,25.7,9.2,45,24.2,57.8c15,12.8,35.8,19,58.9,19v-2c-22.7,0-43-6.1-57.6-18.5c-14.5-12.4-23.5-31-23.5-56.2H187.7z M270.8,208.9
	c22.9,0,43.6-6.2,58.6-19c15-12.8,24.2-32,24.2-57.7h-2c0,25.2-9,43.9-23.5,56.2c-14.5,12.4-34.7,18.5-57.3,18.5V208.9z
	 M353.6,132.1c0-25.6-9.2-44.8-24.2-57.5c-15-12.7-35.7-19-58.6-19v2c22.6,0,42.8,6.1,57.3,18.5c14.5,12.3,23.5,30.9,23.5,56H353.6z
	 M270.8,55.7c-23.1,0-43.8,6.2-58.9,19c-15,12.7-24.2,31.9-24.2,57.5h2c0-25.1,9-43.7,23.5-56c14.6-12.3,34.8-18.5,57.6-18.5V55.7z
	 M235.8,132.1c0-11.9,3.5-20.4,9.5-25.9c6-5.5,14.7-8.2,25.5-8.2v-2c-11.1,0-20.4,2.8-26.9,8.8c-6.5,6-10.1,15.1-10.1,27.4H235.8z
	 M270.8,98c10.6,0,19.3,2.7,25.3,8.2c6,5.5,9.4,14,9.4,25.9h2c0-12.3-3.6-21.4-10.1-27.4c-6.5-6-15.7-8.8-26.6-8.8V98z M305.5,132.1
	c0,12-3.5,20.6-9.4,26.2c-6,5.6-14.6,8.3-25.3,8.3v2c11,0,20.2-2.8,26.6-8.8c6.5-6,10.1-15.2,10.1-27.6H305.5z M270.8,166.6
	c-10.8,0-19.5-2.7-25.5-8.3c-6-5.6-9.5-14.1-9.5-26.2h-2c0,12.4,3.6,21.6,10.1,27.6c6.5,6,15.8,8.8,26.9,8.8V166.6z M524.6,144.8
	l1,0l0.1-1h-1.1V144.8z M478.5,144.8v-1h-0.9l-0.1,0.9L478.5,144.8z M478.5,119.8l-1,0.1l0.1,0.9h0.9V119.8z M524.6,119.8v1h1.1
	l-0.1-1L524.6,119.8z M366.1,132.1c0,24.6,8.4,43.8,22.7,56.9c14.3,13.1,34.4,19.9,57.8,19.9v-2c-23,0-42.6-6.7-56.5-19.4
	c-13.8-12.6-22-31.3-22-55.4H366.1z M446.5,208.9c20,0,39.3-5.4,53.8-16.2c14.5-10.8,24.3-26.8,25.3-47.8l-2-0.1
	c-1,20.4-10.4,35.9-24.5,46.3c-14.1,10.4-32.9,15.8-52.6,15.8V208.9z M524.6,143.8h-46.1v2h46.1V143.8z M477.5,144.7
	c-1.6,12.3-12.9,21.9-31,21.9v2c18.8,0,31.1-10,33-23.6L477.5,144.7z M446.5,166.6c-10.7,0-18.8-3.2-24.2-9
	c-5.4-5.8-8.2-14.4-8.2-25.5h-2c0,11.4,2.9,20.5,8.8,26.8c5.9,6.3,14.5,9.6,25.6,9.6V166.6z M414.1,132.1c0-10.9,2.8-19.4,8.2-25.2
	c5.4-5.8,13.4-8.9,24.2-8.9v-2c-11.1,0-19.8,3.3-25.6,9.6c-5.8,6.3-8.8,15.3-8.8,26.6H414.1z M446.5,98c18.1,0,29.3,9.6,31,21.9
	l2-0.3c-1.8-13.6-14.2-23.6-33-23.6V98z M478.5,120.8h46.1v-2h-46.1V120.8z M525.6,119.7c-1-21.1-10.8-37.1-25.3-47.8
	c-14.5-10.7-33.7-16.2-53.8-16.2v2c19.7,0,38.5,5.4,52.6,15.8c14.1,10.4,23.5,25.9,24.5,46.3L525.6,119.7z M446.5,55.7
	c-23.4,0-43.5,6.8-57.8,19.8c-14.3,13-22.7,32.2-22.7,56.6h2c0-24,8.2-42.5,22-55.1c13.9-12.6,33.5-19.3,56.5-19.3V55.7z
	 M652.1,163.2v-1h-0.8l-0.2,0.8L652.1,163.2z M663.6,163.2l0.9,0.4l0.6-1.4h-1.5V163.2z M656.4,180.5l-0.9-0.4l-0.1,0.2v0.2H656.4z
	 M710,205v1h1v-1H710z M710,164.7h1v-1h-1V164.7z M688.9,164.7h-1v1h1V164.7z M541.8,115.1h-1v1h1V115.1z M585,115.1v1h1v-1H585z
	 M642.9,113.1l0.1,1l0.9-0.1v-0.9H642.9z M597.1,119.5l-0.1-1l0,0L597.1,119.5z M605.7,144.2l-0.1-1h0L605.7,144.2z M642.9,139h1
	v-1.1l-1.1,0.2L642.9,139z M537.9,165.3c0,7.6,2,18.6,9.8,27.6c7.8,9.1,21.4,16,44.2,16v-2c-22.4,0-35.3-6.8-42.7-15.4
	c-7.4-8.5-9.3-18.9-9.3-26.3H537.9z M591.9,208.9c20.5,0,34.4-5.2,43.9-13.5c9.5-8.3,14.5-19.7,17.2-31.9l-2-0.4
	c-2.7,12-7.5,22.9-16.6,30.9c-9.1,7.9-22.5,13-42.6,13V208.9z M652.1,164.2h11.5v-2h-11.5V164.2z M662.7,162.9l-7.2,17.3l1.8,0.8
	l7.2-17.3L662.7,162.9z M655.4,180.5v2.9h2v-2.9H655.4z M655.4,183.4c0,7.1,2,12.8,5.9,16.7c3.9,3.9,9.6,5.9,16.7,5.9v-2
	c-6.7,0-11.8-1.9-15.3-5.3c-3.4-3.4-5.3-8.5-5.3-15.3H655.4z M678,206h32v-2h-32V206z M711,205v-40.3h-2V205H711z M710,163.7h-21v2
	h21V163.7z M689.9,164.7v-40.9h-2v40.9H689.9z M689.9,123.8c0-24.2-8.9-41.3-23-52.3c-14-11-33.1-15.8-53.2-15.8v2
	c19.9,0,38.4,4.8,52,15.4c13.5,10.6,22.2,27.1,22.2,50.7H689.9z M613.8,55.7c-20.5,0-38.7,5.4-51.8,15.6
	c-13.2,10.2-21.2,25.1-21.2,43.8h2c0-18.1,7.7-32.4,20.4-42.3c12.7-9.8,30.5-15.2,50.6-15.2V55.7z M541.8,116.1H585v-2h-43.2V116.1z
	 M586,115.1c0-6.3,2.5-11.3,7.1-14.7c4.7-3.4,11.6-5.3,20.7-5.3v-2c-9.3,0-16.8,2-21.9,5.7c-5.2,3.8-7.9,9.4-7.9,16.3H586z
	 M613.8,95.1c9.8,0,16.9,1.8,21.4,4.9c4.5,3.1,6.7,7.5,6.7,13.1h2c0-6.2-2.4-11.3-7.5-14.8c-5-3.4-12.5-5.3-22.6-5.3V95.1z
	 M642.7,112.1l-45.8,6.3l0.3,2l45.8-6.3L642.7,112.1z M596.9,118.5c-21.7,3-36.4,8.2-45.8,16c-9.4,7.8-13.3,18-13.3,30.8h2
	c0-12.3,3.7-21.9,12.5-29.3c8.9-7.4,23.3-12.5,44.8-15.5L596.9,118.5z M586,156.6c0-1.9,0.4-3.4,1.1-4.6c0.7-1.2,1.9-2.2,3.5-3
	c3.3-1.7,8.3-2.7,15.2-3.7l-0.3-2c-6.9,1-12.2,2-15.9,3.9c-1.8,1-3.3,2.2-4.3,3.8c-1,1.6-1.4,3.5-1.4,5.7H586z M605.8,145.2L643,140
	l-0.3-2l-37.2,5.2L605.8,145.2z M641.9,139c0,8.6-4,15.4-11.1,20.1c-7.1,4.8-17.4,7.4-30,7.4v2c12.8,0,23.5-2.7,31.1-7.7
	c7.6-5.1,12-12.5,12-21.8H641.9z M600.8,166.6c-3.8,0-7.6-0.6-10.3-2.2c-2.7-1.5-4.5-4-4.5-7.7h-2c0,4.6,2.2,7.6,5.5,9.5
	c3.2,1.8,7.4,2.5,11.3,2.5V166.6z M1.3,483h-1v1h1V483z M47.4,483v1h1v-1H47.4z M47.4,320.3h1v-0.1l0-0.1L47.4,320.3z M38.7,291.5
	v-1h-1.3l0.4,1.3L38.7,291.5z M50.2,291.5l1-0.2l-0.1-0.8h-0.8V291.5z M82.8,483l-1,0.2l0.1,0.8h0.8V483z M172.1,483v1h0.8l0.1-0.8
	L172.1,483z M204.6,291.5v-1h-0.8l-0.1,0.8L204.6,291.5z M216.1,291.5l1,0.3l0.4-1.3h-1.3V291.5z M207.5,320.3l-1-0.3l0,0.1v0.1
	H207.5z M207.5,483h-1v1h1V483z M253.6,483v1h1v-1H253.6z M253.6,280h1v-1h-1V280z M162.8,280v-1H162l-0.1,0.8L162.8,280z
	 M133.2,471.5v1h0.9l0.1-0.8L133.2,471.5z M121.7,471.5l-1,0.2l0.1,0.8h0.9V471.5z M92,280l1-0.2l-0.1-0.8H92V280z M1.3,280v-1h-1v1
	H1.3z M1.3,484h46.1v-2H1.3V484z M48.4,483V320.3h-2V483H48.4z M48.3,320l-8.6-28.8l-1.9,0.6l8.6,28.8L48.3,320z M38.7,292.5h11.5
	v-2H38.7V292.5z M49.3,291.6l32.5,191.5l2-0.3L51.2,291.3L49.3,291.6z M82.8,484h89.3v-2H82.8V484z M173.1,483.2l32.5-191.5l-2-0.3
	l-32.5,191.5L173.1,483.2z M204.6,292.5h11.5v-2h-11.5V292.5z M215.2,291.2l-8.6,28.8l1.9,0.6l8.6-28.8L215.2,291.2z M206.5,320.3
	V483h2V320.3H206.5z M207.5,484h46.1v-2h-46.1V484z M254.6,483V280h-2v203H254.6z M253.6,279h-90.7v2h90.7V279z M161.9,279.8
	l-29.7,191.5l2,0.3l29.7-191.5L161.9,279.8z M133.2,470.5h-11.5v2h11.5V470.5z M122.7,471.3L93,279.8l-2,0.3l29.7,191.5L122.7,471.3
	z M92,279H1.3v2H92V279z M0.3,280v203h2V280H0.3z M273.7,483h-1v1h1V483z M400.4,483v1h1v-1H400.4z M400.4,442.7h1v-1h-1V442.7z
	 M359.2,442.7h-1v1h1V442.7z M334.2,334.7l0.1,1h0L334.2,334.7z M279.4,337.6l-0.1-1l-0.9,0v0.9H279.4z M279.4,377.9h-1v1l1-0.1
	L279.4,377.9z M314.9,376.2h1v-1.1l-1,0.1L314.9,376.2z M314.9,442.7v1h1v-1H314.9z M273.7,442.7v-1h-1v1H273.7z M333.3,324.2
	c8.6,0,15.8-2,20.8-6.1c5.1-4.1,7.8-10.2,7.8-17.9h-2c0,7.2-2.6,12.7-7.1,16.4c-4.6,3.7-11.2,5.7-19.6,5.7V324.2z M361.9,300.1
	c0-7.6-2.8-13.7-7.8-17.8c-5-4.1-12.2-6.2-20.8-6.2v2c8.3,0,15,2.1,19.6,5.8c4.5,3.7,7.1,9.2,7.1,16.3H361.9z M333.3,276.1
	c-8.6,0-15.7,2.1-20.6,6.2c-4.9,4.1-7.5,10.2-7.5,17.8h2c0-7.1,2.4-12.6,6.8-16.3c4.4-3.7,10.9-5.8,19.3-5.8V276.1z M305.2,300.1
	c0,7.7,2.6,13.8,7.5,17.9c4.9,4.1,11.9,6.1,20.5,6.1v-2c-8.4,0-14.9-2-19.3-5.7c-4.4-3.7-6.8-9.1-6.8-16.4H305.2z M273.7,484h126.7
	v-2H273.7V484z M401.4,483v-40.3h-2V483H401.4z M400.4,441.7h-41.2v2h41.2V441.7z M360.2,442.7v-83.8h-2v83.8H360.2z M360.2,358.9
	c0-8.2-2.3-14.8-6.8-19.2c-4.5-4.4-11.1-6.4-19.3-6l0.1,2c7.9-0.4,13.8,1.6,17.8,5.4c4,3.9,6.2,9.9,6.2,17.8H360.2z M334.1,333.7
	l-54.7,2.9l0.1,2l54.7-2.9L334.1,333.7z M278.4,337.6v40.3h2v-40.3H278.4z M279.5,378.9l35.4-1.7l-0.1-2l-35.4,1.7L279.5,378.9z
	 M313.9,376.2v66.5h2v-66.5H313.9z M314.9,441.7h-41.2v2h41.2V441.7z M272.7,442.7V483h2v-40.3H272.7z M433.7,290.3l-0.2-1l-1,0.2
	l0.2,1L433.7,290.3z M441.4,323.2l-1,0.2l0.2,1l1-0.2L441.4,323.2z M553.7,298.4l0.2,1l1-0.2l-0.2-1L553.7,298.4z M546,265.6l1-0.2
	l-0.2-1l-1,0.2L546,265.6z M461,337.6h1v-1h-1V337.6z M414.9,337.6v-1h-1v1H414.9z M529.6,439.5v-1h-0.8l-0.2,0.8L529.6,439.5z
	 M541.1,439.5l0.9,0.3l0.4-1.3h-1.4V439.5z M532.4,465.4l-0.9-0.3l-0.1,0.2v0.2H532.4z M532.4,483h-1v1h1V483z M578.5,483v1h1v-1
	H578.5z M578.5,337.6h1v-1h-1V337.6z M532.4,337.6v-1h-1v1H532.4z M432.7,290.6l7.8,32.8l1.9-0.5l-7.8-32.8L432.7,290.6z
	 M441.6,324.1L554,299.4l-0.4-2l-112.3,24.8L441.6,324.1z M554.7,298.2l-7.8-32.8l-1.9,0.5l7.8,32.8L554.7,298.2z M545.8,264.6
	l-112.3,24.8l0.4,2l112.3-24.8L545.8,264.6z M491,444.6c-11,0-18.1-2.5-22.5-8C464,431,462,422.2,462,409h-2
	c0,13.3,1.9,22.7,6.9,28.9c5,6.2,12.9,8.7,24.1,8.7V444.6z M462,409v-71.4h-2V409H462z M461,336.6h-46.1v2H461V336.6z M413.9,337.6
	v78.6h2v-78.6H413.9z M413.9,416.2c0,22.6,5.7,40.3,16.1,52.4c10.5,12.1,25.7,18.3,44.5,18.3v-2c-18.3,0-32.9-6.1-43-17.7
	c-10.1-11.6-15.6-28.7-15.6-51H413.9z M474.5,486.9c15.8,0,28.3-5.2,37.7-13.7c9.3-8.5,15.4-20.3,18.3-33.4l-2-0.4
	c-2.8,12.8-8.7,24.2-17.7,32.4c-9,8.2-21,13.2-36.3,13.2V486.9z M529.6,440.5h11.5v-2h-11.5V440.5z M540.1,439.2l-8.6,25.9l1.9,0.6
	l8.6-25.9L540.1,439.2z M531.4,465.4V483h2v-17.6H531.4z M532.4,484h46.1v-2h-46.1V484z M579.5,483V337.6h-2V483H579.5z
	 M578.5,336.6h-46.1v2h46.1V336.6z M531.4,337.6v53.9h2v-53.9H531.4z M531.4,391.4c0,20.3-4.1,33.6-11.1,41.8
	c-7,8.1-17,11.4-29.4,11.4v2c12.7,0,23.4-3.4,30.9-12.1c7.5-8.7,11.6-22.5,11.6-43.1H531.4z M765.1,483v1h1v-1H765.1z M765.1,271.3
	h1v-1h-1V271.3z M719,271.3v-1h-1v1H719z M719,346.5h-1v0.2l0.1,0.2L719,346.5z M727.6,372.4v1h1.4l-0.4-1.3L727.6,372.4z
	 M716.1,372.4l-0.9,0.4l0.2,0.6h0.7V372.4z M716.1,448.2v-1h-0.7l-0.2,0.6L716.1,448.2z M727.6,448.2l0.9,0.3l0.4-1.3h-1.4V448.2z
	 M719,474.1l-0.9-0.3l-0.1,0.2v0.2H719z M719,483h-1v1h1V483z M766.1,483V271.3h-2V483H766.1z M765.1,270.3H719v2h46.1V270.3z
	 M718,271.3v75.2h2v-75.2H718z M718,346.8l8.6,25.9l1.9-0.6l-8.6-25.9L718,346.8z M727.6,371.4h-11.5v2h11.5V371.4z M717,372
	c-3.8-9.7-9.2-19.3-18.3-26.5c-9.1-7.2-21.8-11.8-40-11.8v2c17.8,0,30,4.6,38.7,11.4c8.7,6.9,13.9,16.1,17.7,25.7L717,372z
	 M658.8,333.7c-21.3,0-37.4,8.7-48.1,22.7c-10.7,13.9-16,33-16,53.8h2c0-20.4,5.2-39.1,15.6-52.6c10.3-13.5,25.8-21.9,46.5-21.9
	V333.7z M594.7,410.1c0,20.7,5.3,39.9,16,53.9c10.7,14,26.8,22.8,48.1,22.8v-2c-20.7,0-36.2-8.5-46.5-22
	c-10.3-13.6-15.6-32.3-15.6-52.7H594.7z M658.8,486.9c18.2,0,30.9-4.7,40-11.8c9.1-7.2,14.5-16.8,18.3-26.5l-1.9-0.7
	c-3.7,9.6-9,18.8-17.7,25.7c-8.7,6.9-20.9,11.4-38.7,11.4V486.9z M716.1,449.2h11.5v-2h-11.5V449.2z M726.7,447.8l-8.6,25.9l1.9,0.6
	l8.6-25.9L726.7,447.8z M718,474.1v8.9h2v-8.9H718z M719,484h46.1v-2H719V484z M718,410.1c0,12.1-3.4,20.6-9.7,26.1
	c-6.3,5.6-15.7,8.3-27.9,8.3v2c12.5,0,22.4-2.8,29.2-8.8c6.8-6,10.3-15.2,10.3-27.6H718z M680.4,444.6c-12.3,0-21.6-2.7-27.9-8.3
	c-6.3-5.5-9.7-14.1-9.7-26.1h-2c0,12.4,3.5,21.6,10.3,27.6c6.8,6,16.7,8.8,29.2,8.8V444.6z M642.8,410.1c0-12.1,3.4-20.5,9.7-26
	c6.3-5.5,15.7-8.1,27.9-8.1v-2c-12.5,0-22.4,2.7-29.2,8.6c-6.8,6-10.4,15.1-10.4,27.5H642.8z M680.4,376c12.3,0,21.6,2.6,27.9,8.1
	c6.3,5.5,9.7,13.9,9.7,26h2c0-12.4-3.5-21.5-10.4-27.5c-6.8-5.9-16.7-8.6-29.2-8.6V376z M898.5,441.2v-1h-0.8l-0.2,0.8L898.5,441.2z
	 M910,441.2l0.9,0.4l0.6-1.4H910V441.2z M902.8,458.5l-0.9-0.4l-0.1,0.2v0.2H902.8z M956.3,483v1h1v-1H956.3z M956.3,442.7h1v-1h-1
	V442.7z M935.3,442.7h-1v1h1V442.7z M788.2,393.1h-1v1h1V393.1z M831.3,393.1v1h1v-1H831.3z M889.2,391.1l0.1,1l0.9-0.1v-0.9H889.2z
	 M843.4,397.5l-0.1-1l0,0L843.4,397.5z M852.1,422.2l-0.1-1h0L852.1,422.2z M889.2,417h1v-1.1l-1.1,0.2L889.2,417z M784.3,443.3
	c0,7.6,2,18.6,9.8,27.6c7.8,9.1,21.4,16,44.2,16v-2c-22.4,0-35.3-6.8-42.7-15.4c-7.4-8.5-9.3-18.9-9.3-26.3H784.3z M838.3,486.9
	c20.5,0,34.4-5.2,43.9-13.5c9.5-8.3,14.5-19.7,17.2-31.9l-2-0.4c-2.7,12-7.5,22.9-16.6,30.9c-9.1,7.9-22.5,13-42.6,13V486.9z
	 M898.5,442.2H910v-2h-11.5V442.2z M909.1,440.9l-7.2,17.3l1.8,0.8l7.2-17.3L909.1,440.9z M901.8,458.5v2.9h2v-2.9H901.8z
	 M901.8,461.4c0,7.1,2,12.8,5.9,16.7c3.9,3.9,9.6,5.9,16.7,5.9v-2c-6.7,0-11.8-1.9-15.3-5.3c-3.4-3.4-5.3-8.5-5.3-15.3H901.8z
	 M924.4,484h32v-2h-32V484z M957.3,483v-40.3h-2V483H957.3z M956.3,441.7h-21v2h21V441.7z M936.3,442.7v-40.9h-2v40.9H936.3z
	 M936.3,401.8c0-24.2-8.9-41.3-23-52.3c-14-11-33.1-15.8-53.2-15.8v2c19.9,0,38.4,4.8,52,15.4c13.5,10.6,22.2,27.1,22.2,50.7H936.3z
	 M860.2,333.7c-20.5,0-38.7,5.4-51.8,15.6c-13.2,10.2-21.2,25.1-21.2,43.8h2c0-18.1,7.7-32.4,20.4-42.3
	c12.7-9.8,30.5-15.2,50.6-15.2V333.7z M788.2,394.1h43.2v-2h-43.2V394.1z M832.3,393.1c0-6.3,2.5-11.3,7.1-14.7
	c4.7-3.4,11.6-5.4,20.7-5.4v-2c-9.3,0-16.8,2-21.9,5.7c-5.2,3.8-7.9,9.4-7.9,16.3H832.3z M860.2,373.1c9.8,0,16.9,1.8,21.4,4.9
	c4.5,3.1,6.7,7.5,6.7,13.1h2c0-6.2-2.4-11.3-7.5-14.8c-5-3.4-12.5-5.3-22.6-5.3V373.1z M889.1,390.1l-45.8,6.3l0.3,2l45.8-6.3
	L889.1,390.1z M843.3,396.5c-21.7,3-36.4,8.2-45.8,16c-9.4,7.8-13.3,18-13.3,30.8h2c0-12.3,3.7-21.9,12.5-29.3
	c8.9-7.4,23.3-12.5,44.8-15.5L843.3,396.5z M832.3,434.6c0-1.9,0.4-3.4,1.1-4.6c0.7-1.2,1.9-2.2,3.5-3c3.3-1.7,8.3-2.7,15.2-3.7
	l-0.3-2c-6.9,1-12.2,2-15.9,3.9c-1.8,1-3.3,2.2-4.3,3.8c-1,1.6-1.4,3.5-1.4,5.7H832.3z M852.2,423.2l37.2-5.2l-0.3-2l-37.2,5.2
	L852.2,423.2z M888.2,417c0,8.6-4,15.4-11.1,20.1c-7.1,4.8-17.4,7.4-30,7.4v2c12.8,0,23.5-2.7,31.1-7.7c7.6-5.1,12-12.5,12-21.8
	H888.2z M847.2,444.6c-3.8,0-7.6-0.6-10.3-2.2c-2.7-1.5-4.5-4-4.5-7.7h-2c0,4.6,2.2,7.6,5.5,9.5c3.2,1.8,7.4,2.5,11.3,2.5V444.6z"/>
</svg>
