<?xml version="1.0" encoding="utf-8"?>
<!-- Generator: Adobe Illustrator 25.0.1, SVG Export Plug-In . SVG Version: 6.00 Build 0)  -->
<svg version="1.1"
	 id="Camada_1" xmlns:cc="http://creativecommons.org/ns#" xmlns:dc="http://purl.org/dc/elements/1.1/" xmlns:inkscape="http://www.inkscape.org/namespaces/inkscape" xmlns:rdf="http://www.w3.org/1999/02/22-rdf-syntax-ns#" xmlns:sodipodi="http://sodipodi.sourceforge.net/DTD/sodipodi-0.dtd" xmlns:svg="http://www.w3.org/2000/svg"
	 xmlns="http://www.w3.org/2000/svg" xmlns:xlink="http://www.w3.org/1999/xlink" x="0px" y="0px" viewBox="0 0 88.1 44"
	 style="enable-background:new 0 0 88.1 44;" xml:space="preserve">
<g transform="translate(0,-952.36218)">
	<path d="M44.3,996.4c0.9-0.1,1.7-0.4,2.4-1l40-36c1.7-1.5,1.8-4,0.3-5.7c-1.5-1.7-4-1.8-5.7-0.3c0,0,0,0,0,0L44,987L6.7,953.4
		c-1.6-1.5-4.2-1.4-5.7,0.3c-1.5,1.6-1.4,4.2,0.3,5.7c0,0,0,0,0,0l40,36C42.2,996.1,43.2,996.5,44.3,996.4z"/>
</g>
</svg>
