<?xml version="1.0" encoding="utf-8"?>
<!-- Generator: Adobe Illustrator 25.0.1, SVG Export Plug-In . SVG Version: 6.00 Build 0)  -->
<svg version="1.1" id="Camada_1" xmlns="http://www.w3.org/2000/svg" xmlns:xlink="http://www.w3.org/1999/xlink" x="0px" y="0px"
	 viewBox="0 0 22 22" style="enable-background:new 0 0 22 22;" xml:space="preserve">
<style type="text/css">
	.st0{fill:none;stroke:#000000;stroke-width:2;stroke-linecap:round;stroke-linejoin:round;}
</style>
<path class="st0" d="M16,1H6C3.2,1,1,3.2,1,6v10c0,2.8,2.2,5,5,5h10c2.8,0,5-2.2,5-5V6C21,3.2,18.8,1,16,1z"/>
<path class="st0" d="M15,10.4c0.1,0.8,0,1.7-0.4,2.4s-1,1.4-1.8,1.7c-0.8,0.4-1.6,0.5-2.4,0.4s-1.6-0.5-2.2-1.1s-1-1.4-1.1-2.2
	C6.9,10.8,7,10,7.4,9.2s1-1.4,1.7-1.8C9.8,7,10.7,6.9,11.5,7c0.8,0.1,1.6,0.5,2.2,1.1C14.4,8.8,14.8,9.6,15,10.4z"/>
<path class="st0" d="M16.7,5.4L16.7,5.4"/>
</svg>
